<?xml version="1.0" encoding="UTF-8" standalone="no"?>
<svg
   xmlns:dc="http://purl.org/dc/elements/1.1/"
   xmlns:cc="http://creativecommons.org/ns#"
   xmlns:rdf="http://www.w3.org/1999/02/22-rdf-syntax-ns#"
   xmlns:svg="http://www.w3.org/2000/svg"
   xmlns="http://www.w3.org/2000/svg"
   xmlns:sodipodi="http://sodipodi.sourceforge.net/DTD/sodipodi-0.dtd"
   xmlns:inkscape="http://www.inkscape.org/namespaces/inkscape"
   inkscape:version="1.0 (4035a4f, 2020-05-01)"
   sodipodi:docname="sbt-logo.svg"
   id="svg528"
   preserveAspectRatio="xMidYMid meet"
   viewBox="0 0 190.000000 63.000000"
   height="55.000000pt"
   width="190.000000pt"
   version="1.0">
  <defs
     id="defs532" />
  <sodipodi:namedview
     inkscape:current-layer="svg528"
     inkscape:window-maximized="0"
     inkscape:window-y="0"
     inkscape:window-x="0"
     inkscape:cy="54.470374"
     inkscape:cx="91.389015"
     inkscape:zoom="4.3302632"
     showgrid="false"
     id="namedview530"
     inkscape:window-height="900"
     inkscape:window-width="1440"
     inkscape:pageshadow="2"
     inkscape:pageopacity="0"
     guidetolerance="10"
     gridtolerance="10"
     objecttolerance="10"
     borderopacity="1"
     bordercolor="#666666"
     pagecolor="#ffffff" />
  <metadata
     id="metadata486">
Created by potrace 1.10, written by Peter Selinger 2001-2011
<rdf:RDF>
  <cc:Work
     rdf:about="">
    <dc:format>image/svg+xml</dc:format>
    <dc:type
       rdf:resource="http://purl.org/dc/dcmitype/StillImage" />
  </cc:Work>
</rdf:RDF>
</metadata>
  <g
     style="fill:#adefd1;fill-opacity:1"
     id="g526"
     stroke="none"
     fill="#000000"
     transform="translate(0.000000,63.000000) scale(0.100000,-0.100000)">
    <path
       style="fill:#adefd1;fill-opacity:1"
       id="path488"
       d="M1551 443 c-30 -36 -31 -37 -25 -11 8 35 -19 49 -44 24 -16 -16 -15 -19 8 -38 l25 -20 -42 -39 -42 -39 29 0 c17 0 30 -2 30 -5 0 -8 -70 -115 -76 -115 -3 0 -2 10 1 21 5 13 2 25 -6 31 -11 7 -11 11 -1 15 17 7 15 40 -4 47 -9 3 -32 6 -52 6 l-37 0 0 -90 0 -90 28 0 c19 0 38 11 59 33 17 17 60 62 96 99 59 60 67 65 78 50 10 -14 15 -14 25 -5 10 10 7 22 -18 57 l-32 45 21 26 c33 42 14 40 -21 -2z m17 -74 c2 -11 -6 -18 -25 -22 -35 -7 -38 -4 -21 22 15 24 41 24 46 0z m-181 -75 c5 -14 -11 -33 -28 -34 -10 0 -20 31 -13 41 9 15 34 10 41 -7z m11 -71 c4 -30 -15 -63 -36 -63 -15 0 -18 8 -16 43 1 23 2 43 3 45 1 2 11 2 24 0 14 -2 23 -11 25 -25z" />
    <path
       style="fill:#adefd1;fill-opacity:1"
       id="path490"
       d="M1617 454 c-4 -4 -6 -28 -5 -53 l1 -46 6 45 6 45 103 3 102 3 0 -76 0 -76 -110 3 c-60 2 -106 0 -102 -5 5 -4 34 -8 65 -8 41 -1 57 -5 57 -16 0 -9 -8 -12 -27 -7 -19 4 -24 3 -15 -4 11 -7 11 -10 -2 -15 -35 -13 -12 -117 25 -117 22 0 49 22 49 38 -1 16 -2 16 -14 0 -16 -22 -42 -23 -49 -4 -4 9 3 16 18 20 28 7 50 41 38 59 -21 33 -13 46 30 49 l42 3 0 80 0 80 -106 3 c-58 1 -108 -1 -112 -4z m123 -223 c0 -20 -27 -48 -37 -37 -9 8 14 56 27 56 5 0 10 -8 10 -19z" />
    <path
       style="fill:#adefd1;fill-opacity:1"
       id="path492"
       d="M1726 385 c-23 -54 -19 -68 4 -16 11 24 18 46 16 49 -3 2 -12 -13 -20 -33z" />
    <path
       style="fill:#adefd1;fill-opacity:1"
       id="path494"
       d="M1668 394 c-16 -8 -28 -16 -28 -18 0 -2 11 -11 25 -20 14 -9 25 -12 25 -7 0 5 -10 13 -22 17 -21 6 -21 7 5 21 15 7 27 16 27 18 0 7 -1 6 -32 -11z" />
    <path
       style="fill:#adefd1;fill-opacity:1"
       id="path496"
       d="M1760 401 c0 -5 10 -13 22 -17 l21 -6 -24 -20 c-22 -17 -22 -18 -2 -9 33 17 35 27 8 45 -14 9 -25 12 -25 7z" />
    <path
       style="fill:#adefd1;fill-opacity:1"
       id="path498"
       d="M95 322 c-35 -4 -56 -27 -48 -50 4 -10 19 -32 35 -50 33 -39 37 -72 8 -72 -15 0 -20 7 -20 26 0 22 -2 25 -15 14 -21 -17 -19 -27 9 -45 18 -12 30 -13 50 -6 37 15 34 50 -9 101 -20 24 -34 48 -32 54 6 19 31 12 44 -14 9 -19 13 -21 18 -9 11 30 -8 54 -40 51z" />
    <path
       style="fill:#adefd1;fill-opacity:1"
       id="path500"
       d="M630 306 c0 -21 21 -31 31 -15 14 22 11 29 -11 29 -11 0 -20 -6 -20 -14z" />
    <path
       style="fill:#adefd1;fill-opacity:1"
       id="path502"
       d="M820 311 c0 -5 -3 -18 -6 -28 -4 -13 -1 -12 14 6 30 37 43 19 41 -57 -1 -37 -5 -74 -9 -82 -6 -12 -2 -15 20 -15 20 0 26 3 19 12 -13 15 -7 155 7 160 6 2 16 -7 22 -19 11 -23 11 -23 11 5 1 27 0 27 -59 27 -33 0 -60 -4 -60 -9z" />
    <path
       style="fill:#adefd1;fill-opacity:1"
       id="path504"
       d="M1181 278 c4 -24 5 -64 2 -90 -5 -40 -3 -48 10 -48 12 0 17 12 19 47 2 36 7 49 21 51 14 3 17 -4 17 -46 0 -35 4 -52 15 -56 12 -4 15 4 15 42 0 27 -6 57 -14 68 -13 16 -18 17 -35 6 -20 -11 -21 -10 -21 28 0 32 -4 40 -19 40 -16 0 -17 -5 -10 -42z" />
    <path
       style="fill:#adefd1;fill-opacity:1"
       id="path506"
       d="M172 248 c-22 -22 -14 -65 19 -92 29 -25 49 -33 49 -20 0 3 -11 15 -26 26 -19 15 -24 28 -22 51 4 37 27 48 35 17 4 -16 8 -18 14 -8 17 26 9 38 -24 38 -18 0 -38 -5 -45 -12z" />
    <path
       style="fill:#adefd1;fill-opacity:1"
       id="path508"
       d="M285 243 c-30 -29 -2 -113 37 -113 36 0 64 90 36 118 -17 17 -54 15 -73 -5z m50 -44 c0 -32 -4 -44 -15 -44 -16 0 -26 54 -16 82 12 30 31 6 31 -38z" />
    <path
       style="fill:#adefd1;fill-opacity:1"
       id="path510"
       d="M405 200 c0 -50 3 -60 17 -60 14 0 16 7 11 35 -3 22 -1 41 8 51 12 14 14 14 26 -2 12 -16 13 -15 13 9 0 27 -13 36 -25 17 -3 -5 -11 -10 -16 -10 -6 0 -7 5 -4 10 3 6 -2 10 -12 10 -15 0 -18 -9 -18 -60z" />
    <path
       style="fill:#adefd1;fill-opacity:1"
       id="path512"
       d="M505 168 c0 -77 2 -88 17 -88 14 0 16 6 12 30 -5 23 -3 30 9 30 21 0 57 47 57 75 0 31 -18 43 -60 42 l-35 -1 0 -88z m63 49 c4 -28 -13 -67 -28 -67 -11 0 -14 83 -3 94 13 12 28 0 31 -27z" />
    <path
       style="fill:#adefd1;fill-opacity:1"
       id="path514"
       d="M631 239 c6 -12 9 -41 6 -65 -3 -33 -1 -41 9 -37 10 4 14 23 14 64 0 53 -2 59 -20 59 -18 0 -19 -3 -9 -21z" />
    <path
       style="fill:#adefd1;fill-opacity:1"
       id="path516"
       d="M712 248 c-29 -29 0 -118 38 -118 20 0 50 41 50 69 0 50 -56 81 -88 49z m53 -49 c0 -32 -4 -44 -15 -44 -16 0 -26 54 -16 82 12 30 31 6 31 -38z" />
    <path
       style="fill:#adefd1;fill-opacity:1"
       id="path518"
       d="M964 235 c-31 -47 7 -116 55 -100 11 3 22 12 25 20 6 18 -5 20 -21 4 -13 -13 -43 -5 -43 11 0 5 7 10 15 10 8 0 24 9 35 20 16 16 18 25 10 40 -15 28 -56 26 -76 -5z m50 -22 c-15 -24 -34 -28 -34 -6 0 26 21 46 34 33 7 -7 7 -16 0 -27z" />
    <path
       style="fill:#adefd1;fill-opacity:1"
       id="path520"
       d="M1083 253 c-14 -5 -17 -50 -7 -78 8 -21 61 -48 69 -35 3 6 -1 10 -10 10 -8 0 -23 16 -32 35 -14 29 -14 36 -3 51 13 15 16 14 32 -6 l18 -22 0 26 c0 22 -4 26 -27 25 -16 0 -34 -3 -40 -6z" />
    <path
       style="fill:#adefd1;fill-opacity:1"
       id="path522"
       d="M1505 237 c5 -18 0 -24 -25 -34 -22 -8 -30 -18 -30 -36 0 -28 23 -41 48 -28 11 6 24 6 34 0 13 -7 15 -3 10 39 -5 52 -17 82 -33 82 -5 0 -7 -10 -4 -23z m1 -72 c-7 -19 -36 -19 -36 0 0 17 33 38 38 24 2 -5 1 -16 -2 -24z" />
    <path
       style="fill:#adefd1;fill-opacity:1"
       id="path524"
       d="M1582 248 c-19 -19 -14 -35 18 -58 17 -12 30 -26 30 -31 0 -14 -38 -11 -43 4 -3 9 -7 9 -17 0 -20 -18 26 -38 56 -24 33 15 30 43 -7 70 -23 18 -28 26 -19 35 8 8 15 7 24 -6 17 -23 26 -23 26 2 0 15 -7 20 -28 20 -15 0 -33 -5 -40 -12z" />
  </g>
</svg>
